<svg xmlns="http://www.w3.org/2000/svg" viewBox="0 0 65.5833 60.6667" role="img" aria-labelledby="t"><title id="t">Random Universe</title><g fill="currentColor"><path d="M 27.144531 14.542969 L 27.144531 22.472656 C 26.359375 21.429688 25.058594 20.910156 23.238281 20.910156 C 21.011719 20.910156 19.394531 21.566406 18.390625 22.898438 C 17.394531 24.21875 16.890625 26.40625 16.890625 29.449219 L 16.890625 45.089844 L 8.699219 45.089844 L 8.699219 15.246094 L 16.492188 15.246094 L 16.492188 19.410156 L 16.660156 19.410156 C 17.703125 17.671875 19.046875 16.429688 20.707031 15.65625 C 22.355469 14.890625 24.042969 14.503906 25.785156 14.503906 C 26.25 14.503906 26.707031 14.511719 27.144531 14.542969"/><path d="M 28.457031 14.671875 C 29.488281 14.808594 30.394531 15.046875 31.179688 15.367188 C 32.578125 15.941406 33.683594 16.757812 34.496094 17.820312 C 35.304688 18.875 35.867188 20.167969 36.195312 21.6875 C 36.523438 23.207031 36.683594 24.886719 36.683594 26.734375 L 36.683594 31.960938 L 36.675781 31.960938 L 36.675781 32.101562 C 36.675781 34.566406 37.050781 36.402344 37.828125 37.617188 C 38.601562 38.828125 39.960938 39.433594 41.921875 39.433594 C 44.15625 39.433594 45.765625 38.769531 46.769531 37.4375 C 47.773438 36.113281 48.269531 33.929688 48.269531 30.886719 L 48.269531 15.246094 L 56.46875 15.246094 L 56.46875 45.089844 L 48.679688 45.089844 L 48.679688 40.933594 L 48.5 40.933594 C 47.464844 42.664062 46.113281 43.914062 44.464844 44.679688 C 42.804688 45.445312 41.113281 45.832031 39.386719 45.832031 C 37.191406 45.832031 35.390625 45.546875 33.992188 44.96875 C 32.589844 44.390625 31.476562 43.578125 30.671875 42.515625 C 29.867188 41.460938 29.300781 40.167969 28.972656 38.648438 C 28.644531 37.128906 28.476562 35.449219 28.476562 33.601562 Z M 28.457031 14.671875"/></g></svg>
